<svg width="19" height="21" viewBox="0 0 19 21" fill="none" xmlns="http://www.w3.org/2000/svg">
<g clip-path="url(#clip0_72_1556)">
<path d="M18.9172 9.07604L10.2458 1.07056C10.035 0.874635 9.77188 0.7677 9.50045 0.7677C9.22903 0.7677 8.96586 0.874635 8.75513 1.07056L0.083742 9.07604C0.0608345 9.09699 0.041789 9.12295 0.0277112 9.15239C0.0136334 9.18184 0.00480379 9.2142 0.00173496 9.24759C-0.00133387 9.28098 0.00141925 9.31473 0.00983447 9.34689C0.0182497 9.37905 0.0321594 9.40898 0.0507559 9.43493L0.519159 10.096C0.537773 10.1224 0.560734 10.1442 0.586729 10.1604C0.612723 10.1765 0.641242 10.1866 0.670653 10.1901C0.700065 10.1936 0.729791 10.1905 0.758133 10.1808C0.786475 10.1711 0.812876 10.1552 0.835825 10.1338L2.1114 8.95553V19.5061C2.1114 19.6664 2.167 19.8202 2.26598 19.9335C2.36496 20.0469 2.4992 20.1106 2.63918 20.1106H16.3614C16.5014 20.1106 16.6356 20.0469 16.7346 19.9335C16.8336 19.8202 16.8892 19.6664 16.8892 19.5061V8.95931L18.169 10.1414C18.2154 10.1844 18.2748 10.2046 18.3342 10.1975C18.3936 10.1904 18.4481 10.1567 18.4857 10.1036L18.9538 9.44249C18.9894 9.3875 19.0055 9.31903 18.9987 9.25098C18.9919 9.18293 18.9628 9.12038 18.9172 9.07604ZM7.91695 18.9017V12.8572H11.0836V18.9017H7.91695ZM15.8336 18.9017H12.1392V12.2528C12.1392 12.0925 12.0836 11.9387 11.9846 11.8254C11.8856 11.712 11.7514 11.6483 11.6114 11.6483H7.38918C7.2492 11.6483 7.11496 11.712 7.01598 11.8254C6.917 11.9387 6.8614 12.0925 6.8614 12.2528V18.9017H3.16695V7.98087L9.35878 2.26131C9.39786 2.22467 9.44681 2.20464 9.49732 2.20464C9.54783 2.20464 9.59678 2.22467 9.63586 2.26131L15.8336 7.98389V18.9017Z" fill="black"/>
</g>
<defs>
<clipPath id="clip0_72_1556">
<rect width="19" height="19.3422" fill="white" transform="translate(0 0.768921)"/>
</clipPath>
</defs>
</svg>
