<svg width="17" height="20" viewBox="0 0 17 20" fill="none" xmlns="http://www.w3.org/2000/svg">
<path d="M5.3125 8.20156C5.3125 7.86912 5.55156 7.59712 5.84375 7.59712H10.625V4.04979C10.625 3.78156 10.9105 3.64556 11.0766 3.83445L15.7781 9.24045C15.9873 9.47845 15.9873 9.86001 15.7781 10.098L11.0766 15.504C10.9105 15.6929 10.625 15.5607 10.625 15.2887V11.7413H5.84375C5.55156 11.7413 5.3125 11.4693 5.3125 11.1369V8.20156ZM4.25 8.20156V11.1369C4.25 12.138 4.96387 12.9502 5.84375 12.9502H9.5625V15.2887C9.5625 16.6298 10.9902 17.3098 11.827 16.3578L16.5318 10.9556C17.1561 10.2453 17.1561 9.0969 16.5318 8.38667L11.827 2.98067C10.9936 2.03245 9.5625 2.7049 9.5625 4.04979V6.38823H5.84375C4.96387 6.38823 4.25 7.20423 4.25 8.20156ZM0 4.23112V15.1111C0 16.1122 0.713867 16.9245 1.59375 16.9245H5.97656C6.1957 16.9245 6.375 16.7205 6.375 16.4711V16.1689C6.375 15.9196 6.1957 15.7156 5.97656 15.7156H1.59375C1.30156 15.7156 1.0625 15.4436 1.0625 15.1111V4.23112C1.0625 3.89867 1.30156 3.62667 1.59375 3.62667H5.97656C6.1957 3.62667 6.375 3.42267 6.375 3.17334V2.87112C6.375 2.62179 6.1957 2.41779 5.97656 2.41779H1.59375C0.713867 2.41779 0 3.23001 0 4.23112Z" fill="black"/>
</svg>
