<svg width="15" height="17" viewBox="0 0 15 17" fill="none" xmlns="http://www.w3.org/2000/svg">
<path d="M13.3929 0H1.60714C0.719866 0 0 0.812222 0 1.81333V15.1111C0 16.1122 0.719866 16.9244 1.60714 16.9244H13.3929C14.2801 16.9244 15 16.1122 15 15.1111V1.81333C15 0.812222 14.2801 0 13.3929 0ZM13.9286 15.1111C13.9286 15.4436 13.6875 15.7156 13.3929 15.7156H1.60714C1.3125 15.7156 1.07143 15.4436 1.07143 15.1111V1.81333C1.07143 1.48089 1.3125 1.20889 1.60714 1.20889H13.3929C13.6875 1.20889 13.9286 1.48089 13.9286 1.81333V15.1111ZM6.69643 4.83556H5.35714V3.62667C5.35714 3.37733 5.17634 3.17333 4.95536 3.17333H4.6875C4.46652 3.17333 4.28571 3.37733 4.28571 3.62667V4.83556H2.94643C2.50446 4.83556 2.14286 5.24356 2.14286 5.74222V7.55556C2.14286 8.05422 2.50446 8.46222 2.94643 8.46222H4.28571V12.8444C4.28571 13.0938 4.46652 13.2978 4.6875 13.2978H4.95536C5.17634 13.2978 5.35714 13.0938 5.35714 12.8444V8.46222H6.69643C7.13839 8.46222 7.5 8.05422 7.5 7.55556V5.74222C7.5 5.24356 7.13839 4.83556 6.69643 4.83556ZM6.42857 7.25333H3.21429V6.04444H6.42857V7.25333ZM12.0536 8.46222H10.7143V3.62667C10.7143 3.37733 10.5335 3.17333 10.3125 3.17333H10.0446C9.82366 3.17333 9.64286 3.37733 9.64286 3.62667V8.46222H8.30357C7.86161 8.46222 7.5 8.87022 7.5 9.36889V11.1822C7.5 11.6809 7.86161 12.0889 8.30357 12.0889H9.64286V12.8444C9.64286 13.0938 9.82366 13.2978 10.0446 13.2978H10.3125C10.5335 13.2978 10.7143 13.0938 10.7143 12.8444V12.0889H12.0536C12.4955 12.0889 12.8571 11.6809 12.8571 11.1822V9.36889C12.8571 8.87022 12.4955 8.46222 12.0536 8.46222ZM11.7857 10.88H8.57143V9.67111H11.7857V10.88Z" fill="black"/>
</svg>
